<svg width="341" height="639" viewBox="0 0 341 639" fill="none" xmlns="http://www.w3.org/2000/svg">
<path d="M61.0852 16.252C25.2822 120.551 7.18818 208.419 0.932277 308.699C-0.511393 331.916 -0.222659 393.531 1.4135 418.177C6.51447 494.258 17.2939 556.409 42.3175 655.439C62.8176 736.431 68.9773 764.113 74.0782 796.707C87.2637 881.003 81.2966 950.922 53.1931 1042.54C49.7283 1053.79 46.841 1063.62 46.7447 1064.33C46.6485 1065.4 53.3856 1067.9 56.3692 1067.99C57.4279 1067.99 61.5664 1057.27 61.5664 1054.69C61.5664 1053.88 62.2401 1053.7 63.78 1054.06C64.935 1054.42 67.0524 1054.86 68.5923 1055.13C71.7684 1055.85 71.7684 1056.02 68.7848 1064.42C67.4373 1068.08 66.3787 1071.12 66.3787 1071.12C66.3787 1071.21 69.651 1072.19 73.597 1073.35C78.0243 1074.6 81.2003 1075.13 81.6816 1074.6C82.0665 1074.15 84.7614 1066.29 87.5525 1057.19C91.691 1043.61 92.8459 1040.58 94.1934 1040.84C95.0596 1041.02 104.877 1043.26 115.945 1045.67C139.525 1050.85 154.058 1054.06 176.579 1059.06C185.626 1061.03 198.33 1063.79 204.971 1065.31C211.612 1066.74 224.412 1069.6 233.363 1071.56C242.41 1073.53 255.114 1076.3 261.755 1077.81C268.396 1079.24 278.598 1081.47 284.373 1082.81C290.244 1084.06 295.056 1085.22 295.248 1085.4C295.633 1085.76 289.089 1108.98 284.565 1123.53L281.293 1133.98L285.624 1135.41C288.03 1136.12 290.533 1136.75 291.206 1136.75C291.88 1136.75 293.324 1133.45 294.575 1129.16C295.73 1124.96 297.173 1121.57 297.847 1121.57C298.81 1121.57 305.065 1123.27 305.739 1123.8C305.932 1123.89 304.969 1127.46 303.622 1131.84C302.371 1136.21 301.408 1139.87 301.504 1139.96C302.274 1140.41 311.418 1143 312.38 1143C315.171 1143 331.34 1088.53 339.136 1052.45C352.899 989.677 358 943.064 358 879.574C358 843.498 356.653 818.227 353.188 788.491C346.643 732.859 336.922 682.853 317.577 604.986C284.084 470.505 276.866 426.035 276.866 357.188C276.866 329.148 277.443 319.326 280.619 290.661C287.068 231.904 302.467 169.485 329.512 92.4222C331.34 87.0645 332.784 82.5996 332.688 82.5996C332.303 82.3317 298.81 72.1519 297.943 71.9733C297.558 71.9733 296.5 73.7592 295.826 76.0809C295.056 78.4919 294.286 80.3672 293.997 80.3672C293.805 80.3672 249.244 66.7047 194.962 49.9169C138.177 32.4148 96.2145 19.1095 96.2145 18.4844C96.2145 17.8594 96.8882 15.627 97.7544 13.4838C98.5244 11.3407 99.0056 9.46545 98.9093 9.3761C98.7169 9.28687 95.8295 8.30457 92.461 7.23303C86.1088 5.35779 84.7614 5.62573 84.6651 8.7511C84.6651 9.46545 83.8952 9.64404 82.0665 9.28687C75.8106 7.85815 75.0407 7.32227 75.6181 4.73267C76.0994 2.50024 75.8106 2.05383 72.9233 1.07153C71.0946 0.535767 68.9773 0 68.2073 0C67.1486 0 65.1275 4.73267 61.0852 16.252ZM77.0618 18.8416C78.8905 19.4667 80.4304 20.0024 80.6229 20.0918C80.9116 20.3596 76.0031 36.7903 75.4257 37.4154C74.6557 38.219 66.2824 35.3616 66.6674 34.4685C66.8599 33.9327 68.1111 30.0037 69.3622 25.6282C70.6134 21.3419 72.1533 17.8594 72.7308 17.8594C73.3083 17.8594 75.2332 18.3058 77.0618 18.8416ZM71.4796 48.2203C72.1533 48.7561 68.2073 64.7402 67.2449 65.5438C67.0524 65.7224 64.8387 65.4546 62.4326 64.9188L57.9091 63.9365L60.3152 55.8998C61.5664 51.4349 62.8176 47.3273 63.0101 46.7023C63.2988 45.8986 64.3575 45.8986 67.0524 46.6129C69.0735 47.0594 71.0946 47.7738 71.4796 48.2203ZM90.4398 67.2405C94.9633 68.4907 112.961 73.5806 130.381 78.5812C147.898 83.5818 166.281 88.7611 171.285 90.1898C176.29 91.6185 194.48 96.7977 211.708 101.62C228.936 106.531 251.265 112.871 261.274 115.639C271.38 118.497 279.849 120.908 280.138 121.087C280.523 121.265 279.753 124.748 278.502 128.766C268.204 161.181 257.232 207.169 251.072 242.977L247.896 261.283L232.978 258.872C217.194 256.282 195.154 252.71 167.917 248.245C158.966 246.727 144.241 244.316 135.194 242.887C109.4 238.691 87.5525 235.119 69.266 232.083C60.0265 230.565 50.5945 229.046 48.3809 228.868C46.071 228.6 44.2424 228.064 44.2424 227.707C44.2424 223.064 52.1344 179.576 57.2354 155.644C63.3951 127.427 67.9186 109.835 77.543 76.5273C79.3717 70.2766 80.8154 64.9188 80.8154 64.6509C80.8154 64.3831 81.1041 64.3831 81.5853 64.5616C81.9703 64.7402 85.9163 65.9904 90.4398 67.2405ZM61.2777 75.4558C64.7425 76.0809 64.7425 75.9023 61.5664 87.5109L59.9303 93.3152L56.1767 93.1366C50.0171 92.7794 50.1133 92.958 52.7119 83.1354C54.6368 75.9023 55.4068 74.2057 56.6579 74.4735C57.5241 74.7415 59.5453 75.0986 61.2777 75.4558ZM312.861 87.6002C314.69 88.2253 316.23 88.7611 316.422 88.8503C316.904 89.2075 310.744 106.263 310.166 106.263C308.242 106.263 302.178 104.031 302.178 103.316C302.178 100.727 307.472 86.6179 308.434 86.6179C309.108 86.6179 311.033 87.0645 312.861 87.6002ZM53.1931 103.674C55.118 104.12 56.7542 105.013 56.7542 105.46C56.7542 105.995 55.7917 110.014 54.733 114.389L52.6157 122.337L49.1509 121.801C47.226 121.533 45.2048 121.176 44.6274 120.997C43.2799 120.64 47.1297 102.691 48.5734 102.691C49.0546 102.691 51.172 103.138 53.1931 103.674ZM304.392 115.729C305.835 115.997 306.99 116.711 306.99 117.336C306.99 117.872 305.739 121.979 304.295 126.444L301.697 134.57L297.366 133.231C294.96 132.517 292.939 131.891 292.842 131.802C292.65 131.624 296.885 117.604 297.847 115.372C298.136 114.746 299.098 114.389 299.964 114.657C300.927 114.925 302.852 115.372 304.392 115.729ZM49.3433 132.963C50.1133 133.677 47.4185 148.143 46.2635 149.929C45.5898 150.822 37.409 150.108 37.2165 149.126C37.2165 148.858 37.9865 144.75 38.9489 139.928L40.6813 131.177L44.6274 131.713C46.841 132.07 48.9584 132.606 49.3433 132.963ZM297.847 144.839C298.521 145.465 294.671 160.645 293.612 161.806C292.65 162.878 284.854 160.645 284.854 159.306C284.854 158.234 287.934 146.715 289.185 143.143C289.474 142.428 290.436 142.428 293.42 143.232C295.537 143.768 297.558 144.482 297.847 144.839ZM43.4724 161.538C43.7612 161.806 43.4724 165.11 42.7025 168.771C40.3926 180.558 40.9701 179.665 35.7728 178.951C33.2705 178.683 31.1531 178.326 31.0569 178.237C30.9606 178.147 31.2493 176.361 31.7306 174.129C32.2118 171.896 33.078 167.789 33.6555 164.931L34.7142 159.841L38.7564 160.377C40.9701 160.734 43.0874 161.181 43.4724 161.538ZM287.549 171.896C289.185 172.254 290.629 172.968 290.629 173.504C290.533 174.129 289.57 178.147 288.415 182.612L286.298 190.649L281.678 189.845C277.636 189.131 277.058 188.774 277.443 187.166C277.732 186.095 278.694 181.987 279.657 177.879C281.004 172.164 281.774 170.646 282.929 170.914C283.699 171.182 285.816 171.539 287.549 171.896ZM37.794 190.202C38.4677 190.738 36.1578 206.99 35.1954 207.794C35.0029 208.062 32.7893 207.883 30.2869 207.615C26.1484 206.99 25.8596 206.812 26.3409 204.579C26.6296 203.329 27.3996 199.221 27.977 195.471L29.2282 188.595L33.078 189.041C35.2916 189.309 37.409 189.845 37.794 190.202ZM280.812 200.471C282.448 200.829 283.892 201.186 283.892 201.275C283.892 201.454 283.025 205.294 281.967 209.937C280.908 214.58 280.042 218.599 280.042 218.867C280.042 219.135 277.828 218.956 275.23 218.42C271.572 217.795 270.514 217.17 270.802 216.188C270.995 215.384 271.957 211.276 272.92 206.901C274.267 200.65 274.845 199.221 276.096 199.489C276.962 199.757 279.079 200.114 280.812 200.471ZM33.1742 218.956C33.463 219.135 33.078 223.331 32.4043 228.243C31.2493 236.905 31.1531 237.083 28.8432 236.815C21.7211 236.101 21.8174 236.19 22.4911 230.118C22.8761 227.082 23.4535 223.064 23.7423 221.099L24.3197 217.706L28.5545 218.152C30.8644 218.331 32.9818 218.777 33.1742 218.956ZM277.636 229.761C277.732 229.85 277.058 233.868 276.288 238.78L274.845 247.531L270.61 247.084C268.396 246.906 266.183 246.459 265.894 246.102C265.605 245.834 265.894 242.53 266.471 238.691C268.492 227.082 268.011 227.886 273.016 228.689C275.518 229.136 277.539 229.582 277.636 229.761ZM29.5169 247.71C29.8057 247.977 27.7845 265.569 27.3996 265.926C27.2071 266.105 25.0897 265.926 22.5873 265.569L18.0638 264.944L18.6413 259.943C19.0263 257.175 19.5075 252.978 19.7962 250.656L20.3737 246.37L24.8972 246.995C27.3033 247.352 29.4207 247.62 29.5169 247.71ZM270.129 257.711L272.92 258.247L271.765 265.926C271.091 270.212 270.514 274.32 270.514 275.124C270.417 276.374 269.647 276.552 265.894 276.106C263.295 275.927 261.178 275.57 260.985 275.481C260.697 275.302 262.525 262.265 263.199 259.14C263.776 257.086 265.124 256.818 270.129 257.711ZM26.3409 276.91C26.4371 277.088 26.1484 281.196 25.6672 285.929L24.801 294.68H19.9887H15.1765L15.754 287.715C16.9089 275.481 16.8126 275.659 21.8174 276.195C24.1272 276.374 26.1484 276.731 26.3409 276.91ZM66.3787 286.643C75.6181 287.625 90.8248 289.233 100.064 290.215C109.304 291.197 124.51 292.804 133.75 293.787C169.649 297.626 184.856 299.234 201.121 300.93C234.999 304.502 242.891 305.395 243.373 305.931C243.661 306.288 240.678 306.288 236.732 305.931C228.936 305.395 228.551 305.753 236.058 306.735L240.582 307.271L240.774 312.36L240.87 317.45L241.544 312.093C241.929 309.146 242.025 316.379 241.833 328.166C241.544 339.953 241.255 350.044 241.063 350.669C240.389 352.812 242.506 401.836 243.95 416.034C244.816 424.071 245.298 430.857 245.105 431.036C244.72 431.304 238.464 431.75 195.347 433.983C185.53 434.519 170.227 435.322 161.18 435.769C152.229 436.215 136.83 437.019 127.013 437.555C117.196 438.09 101.893 438.894 92.8459 439.341C55.7917 441.305 42.7025 442.02 40.7776 442.02C38.9489 442.02 38.7564 441.216 37.6977 427.018C34.3292 383.262 34.2329 338.792 37.2165 292.983L37.794 283.696L43.6649 284.321C46.9372 284.589 57.1392 285.661 66.3787 286.643ZM269.07 287C269.07 287 268.685 291.197 268.107 296.198C267.241 305.217 267.145 305.395 264.739 305.395C263.391 305.395 261.178 305.127 259.927 304.77C257.713 304.234 257.713 304.056 258.387 297.001C259.349 285.661 259.253 285.929 264.45 286.464C266.953 286.643 268.974 286.911 269.07 287ZM23.5498 314.682C23.1648 319.594 22.6836 323.79 22.5873 323.969C22.3948 324.148 20.2775 323.969 17.7751 323.612L13.1554 322.987L13.8291 317.093C14.1178 313.878 14.4065 309.771 14.4065 308.074V304.949L19.315 305.306L24.2235 305.574L23.5498 314.682ZM266.183 316.379C266.279 316.468 266.086 320.486 265.894 325.219L265.316 333.97H260.697H255.981V328.702C255.981 325.844 256.269 321.647 256.558 319.236L257.232 315.039L261.659 315.664C264.065 316.022 266.183 316.379 266.183 316.379ZM22.6836 337.274C22.3948 339.15 22.1061 343.346 22.1061 346.65V352.723H17.2939H12.4816V347.99C12.4816 345.49 12.7704 341.203 13.0591 338.614L13.7328 333.97H18.5451H23.3573L22.6836 337.274ZM264.835 354.062L264.546 363.438H259.734H254.922L255.114 354.062L255.211 344.686H260.215H265.124L264.835 354.062ZM22.1061 372.814V382.191H17.2939H12.4816V372.814V363.438H17.2939H22.1061V372.814ZM265.605 383.351V392.549L260.889 392.817L256.077 392.996L255.788 383.53L255.499 374.154H260.6H265.605V383.351ZM22.9723 401.836C23.1648 408.622 22.8761 410.766 21.9136 410.766C21.2399 410.766 19.0263 411.034 17.1014 411.301L13.4441 411.926L13.6366 403.086L13.8291 394.246L14.1178 402.282L14.5028 410.319L18.2563 410.051C21.9136 409.694 22.1061 409.515 22.0099 406.837C21.8174 404.158 21.8174 404.158 21.4324 406.479C21.0474 408.533 20.5662 408.98 18.1601 408.98H15.369V401.836C15.369 394.871 15.4652 394.692 17.6789 394.692C19.5075 394.692 20.1812 395.228 20.4699 397.103C20.8549 399.514 20.8549 399.425 21.0474 396.746C21.1437 393.978 21.0474 393.888 16.6202 393.531L12.0004 393.263L17.3901 393.085L22.8761 392.906L22.9723 401.836ZM266.953 409.605C268.011 421.838 268.204 421.303 262.718 421.66L257.906 421.928V418.267C257.906 416.213 257.617 412.194 257.328 409.158L256.654 403.8L259.445 403.354C266.568 402.372 266.183 402.104 266.953 409.605ZM24.416 430.5C24.801 435.501 24.9934 439.609 24.801 439.787C24.6085 439.876 22.4911 440.234 19.9887 440.412L15.369 440.948V437.644C15.369 435.858 15.0802 431.75 14.7915 428.446C14.1178 421.928 14.214 421.838 20.7587 421.571L23.7423 421.481L24.416 430.5ZM270.129 440.859C270.706 445.681 271.091 449.699 270.995 449.788C270.802 449.967 268.781 450.324 266.375 450.592C262.14 451.128 262.044 451.039 261.467 448.538C261.178 447.02 260.6 442.823 260.215 439.073L259.542 432.197H264.354H269.07L270.129 440.859ZM26.3409 453.807C26.6296 455.414 27.1108 459.432 27.3996 462.647C27.977 469.255 27.5921 469.702 21.6249 469.702H18.4488L17.8713 462.736C17.4864 458.986 17.0051 454.789 16.8126 453.36C16.4277 451.039 16.5239 450.949 21.1437 450.949C25.7634 450.949 25.8596 451.039 26.3409 453.807ZM274.363 469.702L275.807 478.542L271.38 479.435C269.07 479.881 266.856 480.149 266.664 479.971C266.279 479.524 263.68 465.505 263.68 463.272C263.68 461.843 265.605 461.129 270.417 460.861C272.823 460.772 272.92 461.04 274.363 469.702ZM254.056 486.847C258.772 512.028 269.07 557.748 279.464 599.628C281.293 606.951 282.64 613.112 282.544 613.202C282.255 613.47 268.492 616.506 244.913 621.506C238.079 622.935 217.483 627.4 199.196 631.329C180.91 635.258 160.41 639.723 153.48 641.152C146.647 642.58 127.109 646.777 110.17 650.438C93.2309 654.1 79.2754 657.046 79.2754 656.957C79.1792 656.868 76.6768 646.688 73.597 634.454C62.9138 591.056 52.2307 539.8 47.0335 506.313C46.456 502.652 45.8785 498.812 45.686 497.83C45.3011 496.044 47.9959 495.687 144.626 485.596C199.293 479.971 245.682 475.238 247.896 475.149L251.842 475.059L254.056 486.847ZM30.5756 488.633C31.1531 493.633 31.5381 497.83 31.4418 497.919C31.3456 498.009 29.2282 498.277 26.7258 498.544L22.2024 499.08L21.6249 493.99C21.2399 491.222 20.6624 487.025 20.2775 484.703L19.5075 480.506L22.4911 480.149C29.9982 479.256 29.4207 478.631 30.5756 488.633ZM279.561 497.919C280.427 502.652 280.812 506.76 280.427 507.206C279.946 507.563 277.828 508.188 275.711 508.546L271.765 509.081L270.514 502.116C269.84 498.277 269.07 494.08 268.781 492.74C268.3 490.686 268.589 490.329 270.995 489.972C278.213 488.99 277.732 488.543 279.561 497.919ZM34.8104 517.207C35.6766 522.208 36.3503 526.405 36.2541 526.494C36.1578 526.584 34.0404 526.941 31.6343 527.298L27.2071 527.923L26.1484 522.655C25.5709 519.797 24.801 515.6 24.416 513.278L23.8385 509.081L27.977 508.724C30.2869 508.546 32.4043 508.367 32.7893 508.278C33.078 508.188 33.9442 512.207 34.8104 517.207ZM285.239 524.798C286.105 528.638 287.068 532.656 287.26 533.727C287.645 535.335 287.164 535.871 284.18 536.585C282.159 537.121 280.042 537.567 279.464 537.567C278.887 537.567 277.732 534.263 276.77 530.156C275.903 526.137 274.941 522.119 274.652 521.315C274.267 520.154 275.037 519.529 277.347 518.904C283.507 517.297 283.603 517.386 285.239 524.798ZM37.5053 555.962C35.0991 556.409 32.9818 556.766 32.7893 556.587C32.2118 556.23 28.8432 539.085 29.2282 538.728C29.4207 538.549 31.4418 538.103 33.7517 537.746L37.9865 537.031L39.9114 546.05L41.8363 554.98L37.5053 555.962ZM292.457 554.623C293.612 559.088 294.479 563.017 294.479 563.374C294.479 564.178 286.009 566.678 285.432 566.053C285.335 565.874 284.373 562.302 283.41 558.105C282.448 553.909 281.486 550.069 281.293 549.533C280.812 548.372 284.95 546.675 288.415 546.586C290.244 546.497 290.725 547.39 292.457 554.623ZM47.7072 583.644C47.7072 583.734 45.5898 584.18 43.0874 584.716L38.5639 585.52L37.5053 580.519C36.9278 577.751 35.9653 574.09 35.4841 572.393C34.1367 567.571 34.3292 567.303 39.2377 566.41L43.7612 565.696L45.7823 574.625C46.9372 579.537 47.8034 583.644 47.7072 583.644ZM299.868 583.644C301.119 588.377 302.082 592.395 301.986 592.485C301.504 592.842 293.131 594.628 292.939 594.449C292.554 593.914 288.704 578.465 288.704 577.483C288.704 576.411 296.115 574 297.173 574.715C297.366 574.804 298.617 578.822 299.868 583.644ZM52.7119 604.629L54.5406 612.309L50.1133 613.291C47.7072 613.827 45.5898 614.095 45.3973 613.916C45.2048 613.737 44.0499 609.63 42.895 604.718L40.6813 595.789L45.1086 594.985C50.402 594.003 50.2095 593.824 52.7119 604.629ZM306.894 610.791C308.049 615.166 309.204 619.363 309.493 619.988C309.781 620.792 308.434 621.417 305.065 622.042C302.467 622.578 300.253 622.935 300.253 622.846C300.253 622.756 299.195 618.649 297.943 613.827C296.596 609.005 295.633 604.986 295.73 604.897C295.826 604.808 297.847 604.361 300.253 603.825C302.659 603.379 304.68 602.932 304.777 602.843C304.873 602.754 305.835 606.326 306.894 610.791ZM59.0641 631.329C59.9303 634.99 60.8927 638.651 61.0852 639.455C61.4702 640.437 60.4115 641.062 56.8504 641.687L52.0382 642.58L49.8246 633.651L47.5147 624.632L51.942 623.649C57.1392 622.489 56.9467 622.399 59.0641 631.329ZM314.497 639.991C315.652 644.723 316.326 648.92 315.845 649.278C315.46 649.635 313.439 650.171 311.225 650.528L307.375 651.064L305.162 642.402C304.007 637.669 303.237 633.561 303.526 633.383C304.007 632.936 309.3 631.597 311.321 631.418C311.899 631.329 313.342 635.258 314.497 639.991ZM65.7049 658.297C66.5711 662.404 67.6298 666.512 67.9186 667.494C68.3035 669.101 67.8223 669.459 63.6838 670.262L58.8716 671.155L56.8504 662.94C55.7917 658.386 54.8293 654.278 54.8293 653.742C54.8293 653.028 57.5241 652.224 63.4913 651.064C63.78 650.974 64.7425 654.278 65.7049 658.297ZM320.753 665.887C323.929 679.281 324.218 678.12 318.058 679.013L314.209 679.638L312.091 670.887C311.033 666.065 310.263 661.958 310.455 661.779C310.744 661.422 316.422 660.172 318.251 659.993C318.828 659.904 319.983 662.583 320.753 665.887ZM299.676 685.621C301.793 695.265 303.814 704.999 304.199 707.231C304.584 709.464 306.028 717.054 307.279 724.198C313.439 757.148 316.037 775.365 320.08 815.816L320.561 821.263L314.979 821.888C311.899 822.156 304.199 822.781 297.847 823.317C291.495 823.764 281.197 824.567 275.037 825.103C268.781 825.55 258.579 826.443 252.42 826.889C246.164 827.425 236.058 828.229 229.995 828.675C223.931 829.121 213.825 829.925 207.666 830.461C201.41 830.907 191.208 831.8 185.048 832.247C178.792 832.783 168.687 833.586 162.623 834.033C156.56 834.479 146.55 835.283 140.487 835.819C134.424 836.265 126.147 836.98 122.008 837.247L114.693 837.873L114.116 833.051C111.999 813.316 111.132 806.708 109.111 792.956C106.031 773.4 93.1347 710.357 91.0173 704.91C90.8248 704.374 95.2521 703.213 102.374 701.963C108.726 700.802 118.158 699.195 123.163 698.302C128.168 697.319 139.236 695.444 147.705 693.926C156.175 692.408 176.964 688.747 193.903 685.8C210.842 682.853 231.631 679.192 240.1 677.674C265.028 673.298 274.171 671.691 283.892 669.816C288.896 668.923 293.709 668.119 294.479 668.03C295.633 667.941 296.788 671.87 299.676 685.621ZM72.9233 688.211C74.0782 693.033 75.0407 697.23 75.0407 697.587C75.0407 698.034 73.8857 698.302 72.4421 698.391C70.9022 698.391 68.881 698.748 67.8223 699.105C66.0899 699.73 65.7049 699.105 63.6838 690.89C62.5289 685.979 61.7589 681.782 61.9514 681.514C62.4326 681.157 67.9186 679.817 69.8435 679.638C70.4209 679.549 71.7684 683.478 72.9233 688.211ZM327.49 695.98C328.453 700.177 329.127 704.374 329.127 705.356C329.127 707.231 329.03 707.231 321.716 707.588C320.465 707.678 319.791 705.981 318.443 699.195C317.481 694.551 317 690.443 317.385 690.176C317.962 689.55 319.31 689.283 324.892 688.568C325.469 688.568 326.624 691.783 327.49 695.98ZM77.928 708.749C77.928 709.196 78.7942 713.214 79.8529 717.858C80.9116 722.501 81.6816 726.341 81.5853 726.43C81.3928 726.609 79.2754 726.877 76.7731 727.234L72.3458 727.859L71.1909 722.68C70.6134 719.822 69.651 715.893 69.266 713.928C68.3035 709.821 68.2073 709.91 72.3458 709.017C76.6768 708.035 77.928 708.035 77.928 708.749ZM333.361 726.073C334.228 731.074 334.805 735.27 334.709 735.36C334.516 735.538 332.399 735.896 329.993 736.253L325.566 736.878L324.411 730.27C322.293 718.572 322.293 718.483 326.72 717.858C328.838 717.59 330.859 717.232 331.148 717.143C331.436 717.143 332.495 721.162 333.361 726.073ZM85.9163 745.718C86.8788 750.719 87.4562 754.916 87.36 755.005C87.1675 755.184 85.0501 755.541 82.644 755.898L78.2167 756.523L76.4843 747.861C75.6181 743.039 75.2332 738.842 75.6181 738.485C76.0994 738.039 77.8318 737.592 79.3717 737.324C81.0078 737.146 82.7402 736.878 83.2215 736.789C83.7989 736.789 85.0501 740.807 85.9163 745.718ZM337.692 752.683C338.944 759.916 339.04 764.113 338.077 764.649C337.596 764.917 335.575 765.274 333.458 765.363L329.704 765.721L328.453 757.237C327.875 752.594 327.298 748.486 327.298 748.129C327.202 747.415 329.704 746.79 333.554 746.611C336.537 746.522 336.537 746.611 337.692 752.683ZM91.4023 775.365C92.076 779.651 92.461 783.312 92.1722 783.58C91.9797 783.848 89.6699 784.294 87.2637 784.562C82.7402 785.187 82.7402 785.098 82.7402 782.598C82.7402 781.169 82.1628 777.061 81.3928 773.49C80.1416 767.149 80.1416 767.06 82.1628 766.614C86.59 765.721 88.9961 765.721 89.5736 766.614C89.9586 767.06 90.7286 770.989 91.4023 775.365ZM341.542 784.205C342.12 789.116 342.505 793.313 342.408 793.403C342.216 793.492 340.098 793.849 337.692 794.206L333.169 794.831L332.591 789.652C332.206 786.795 331.629 782.598 331.34 780.276L330.859 776.079L334.035 775.722C335.864 775.543 337.981 775.275 338.847 775.275C340.098 775.097 340.58 776.704 341.542 784.205ZM94.5783 796.707C94.8671 797.868 95.3483 801.172 95.7333 804.118C96.022 807.065 96.5032 810.369 96.6957 811.441C97.0807 813.137 96.6957 813.316 92.3647 813.673C86.7825 813.941 87.0713 814.477 86.1088 804.208C85.7238 800.814 85.2426 797.51 84.9539 796.885C84.4726 795.724 86.6863 795.099 91.4985 794.831C93.4234 794.742 94.1934 795.278 94.5783 796.707ZM343.852 811.351C345.007 823.853 345.199 823.317 339.714 823.317H334.901V819.924C334.901 818.138 334.613 813.941 334.324 810.726L333.65 804.922L338.462 804.654L343.275 804.476L343.852 811.351ZM98.9093 838.944C98.6206 842.516 98.6206 842.516 94.1934 842.784C91.1135 842.962 89.7661 842.695 89.7661 841.891C89.7661 841.266 89.4774 837.069 89.0924 832.515L88.4187 824.299L93.0384 824.032L97.6582 823.764L98.4281 829.568C98.8131 832.783 99.0056 836.98 98.9093 838.944ZM345.488 843.23V852.428L340.676 852.696L335.864 852.874V843.409V834.033H340.676H345.488V843.23ZM100.064 858.054C100.064 860.911 100.353 865.108 100.642 867.43L101.315 871.538H96.5032H91.691L91.0173 866.09C90.7286 863.054 90.4398 859.036 90.4398 857.161C90.4398 854.035 90.6323 853.767 93.6159 853.41C100.449 852.607 100.064 852.339 100.064 858.054ZM345.488 872.43V881.807L340.676 881.539L335.864 881.182V871.895V862.608L340.676 862.876L345.488 863.054V872.43ZM323.352 880.646C323.352 901.988 320.753 943.868 318.058 968.157C315.075 993.874 308.434 1034.68 306.99 1036.11C306.317 1036.83 303.333 1036.47 277.443 1032.27C271.476 1031.29 261.659 1029.68 255.788 1028.7C249.821 1027.81 239.908 1026.2 233.844 1025.22C223.354 1023.52 201.795 1020.04 166.473 1014.41C157.715 1012.98 142.797 1010.57 133.269 1009.05C123.74 1007.54 112.961 1005.75 109.208 1005.21C101.315 1003.96 101.604 1005.57 105.261 987.623C111.614 955.744 114.79 928.152 116.041 894.487L116.715 876.895L135.579 876.806C155.982 876.627 277.154 875.556 305.835 875.288L323.352 875.109V880.646ZM100.642 889.129C100.353 892.879 100.064 897.076 100.064 898.505C100.064 900.916 99.8718 901.005 95.1558 901.005H90.1511L90.8248 896.273C91.1135 893.772 91.4023 889.486 91.4023 886.897V882.253H96.3107H101.315L100.642 889.129ZM344.526 901.452V910.828H339.714H334.901V901.452V892.076H339.714H344.526V901.452ZM99.5831 916.007C99.3906 918.329 98.9093 922.526 98.6206 925.294C97.9469 930.92 97.6582 931.099 91.4985 929.938C88.7074 929.402 88.5149 929.134 88.9961 926.098C89.1886 924.312 89.6699 920.294 89.9586 917.079L90.5361 911.275L95.3483 911.542L100.064 911.9L99.5831 916.007ZM342.986 927.08C342.216 936.992 341.542 940.296 340.387 940.296C339.714 940.296 337.692 940.028 335.767 939.76L332.206 939.225L332.688 933.242C333.458 921.365 333.361 921.544 338.751 921.544H343.371L342.986 927.08ZM96.8882 941.457C97.1769 941.814 95.4445 956.102 94.7708 958.155C94.3858 959.138 93.2309 959.406 89.8624 959.138L85.4351 958.87L86.0126 953.333C86.3975 950.387 86.8788 946.1 87.2637 943.957L87.8412 940.117L92.1722 940.653C94.5783 940.921 96.6957 941.368 96.8882 941.457ZM340.291 951.28C340.483 951.369 340.098 955.655 339.425 960.656C338.462 969.318 338.27 969.853 336.345 969.407C335.286 969.139 333.169 968.871 331.629 968.871H328.838L329.512 962.799C329.897 959.495 330.474 955.298 330.763 953.333L331.34 949.94L335.671 950.476C338.077 950.744 340.195 951.101 340.291 951.28ZM92.9422 970.121C93.2309 970.389 89.7661 987.623 89.3811 987.981C89.1886 988.159 86.975 988.159 84.3764 987.891C80.7191 987.445 79.8529 987.088 80.2379 985.927C80.4304 985.123 81.2003 981.462 81.7778 977.801C83.414 968.246 83.029 968.782 88.2262 969.496C90.7286 969.764 92.8459 970.032 92.9422 970.121ZM336.634 980.033C337.115 980.39 334.228 997.446 333.65 997.982C333.361 998.25 331.051 998.16 328.453 997.803L323.833 997.089L327.202 996.464C329.03 996.196 329.8 995.839 328.934 995.749C327.875 995.749 327.202 994.856 327.105 993.606C327.009 991.731 327.009 991.731 326.239 993.874C324.988 997.446 325.084 993.696 326.432 985.659L327.49 978.783L331.918 979.319C334.324 979.587 336.441 979.944 336.634 980.033ZM85.7238 998.875C87.36 999.321 87.2637 999.946 83.2215 1015.13C82.7402 1016.91 82.259 1017.18 79.5642 1016.64C72.827 1015.39 73.212 1016.11 75.3294 1007.45C76.3881 1003.16 77.3505 999.143 77.543 998.518C77.928 997.357 80.3341 997.446 85.7238 998.875ZM328.934 1008.61C331.918 1009.14 332.11 1009.41 331.725 1012C331.436 1013.61 330.667 1017.72 329.993 1021.2L328.838 1027.54L324.507 1026.74C322.101 1026.38 319.983 1025.93 319.887 1025.75C319.695 1025.66 320.368 1021.38 321.235 1016.38C322.486 1008.97 323.063 1007.36 324.218 1007.63C325.084 1007.89 327.202 1008.34 328.934 1008.61ZM79.1792 1027.54C79.5642 1027.72 79.5642 1028.97 79.2754 1030.31C78.5055 1033.52 74.9444 1045.13 74.5594 1045.49C74.4632 1045.58 72.3458 1045.22 69.8435 1044.59C66.5711 1043.79 65.5125 1043.17 65.8974 1042.18C66.1862 1041.47 67.3411 1037.54 68.496 1033.43L70.5172 1025.93L74.4632 1026.56C76.6768 1026.82 78.698 1027.27 79.1792 1027.54ZM326.817 1038.43C326.624 1038.7 325.758 1042.9 324.796 1047.72C323.352 1054.77 322.774 1056.38 321.523 1056.02C320.657 1055.76 318.54 1055.4 316.904 1055.04C315.171 1054.69 313.727 1054.15 313.727 1053.79C313.727 1053.44 314.594 1049.33 315.652 1044.77C316.711 1040.22 317.577 1036.38 317.577 1036.29C317.577 1036.2 319.695 1036.56 322.293 1037.09C324.988 1037.54 327.009 1038.17 326.817 1038.43ZM320.272 1066.65C320.465 1066.83 316.615 1084.24 316.23 1084.69C316.134 1084.78 314.016 1084.42 311.514 1083.89C307.375 1083.08 306.894 1082.72 307.279 1081.12C307.568 1080.05 308.53 1075.94 309.493 1071.92L311.129 1064.69L315.556 1065.58C317.962 1066.03 320.08 1066.47 320.272 1066.65ZM310.359 1094.42C312.957 1094.87 313.631 1095.32 313.342 1096.48C313.054 1097.28 312.188 1100.67 311.321 1104.16C310.455 1107.55 309.493 1111.03 309.3 1111.84C308.915 1113.17 308.338 1113.17 304.295 1112.19C301.793 1111.57 299.868 1110.76 299.868 1110.32C299.964 1109.87 301.023 1105.76 302.178 1101.21C303.718 1095.32 304.68 1092.99 305.643 1093.35C306.317 1093.62 308.434 1094.07 310.359 1094.42Z" fill="white" fill-opacity="0.7"/>
</svg>
